<svg xmlns="http://www.w3.org/2000/svg" width="134" height="22" viewBox="0 0 134 22" fill="none">
  <path d="M51.8688 7.7353H56.5271V19.5377H58.7301V7.7353H63.3701V5.66113H51.8688V7.7353Z" fill="#045462"/>
  <path d="M105.743 5.66113H103.179L99.5725 11.7845L99.0287 12.6243L99.5695 13.4324L103.403 19.5377H106.004L101.578 12.5543L105.743 5.66113Z" fill="#045462"/>
  <path d="M115.626 5.66113H113.423V19.5377H115.626V5.66113Z" fill="#045462"/>
  <path d="M71.6047 5.66113L66.512 19.5377H68.8528L70.4394 15.0946L70.803 14.0035L72.5345 9.30638C72.5588 9.23906 72.5846 9.16482 72.6117 9.08374C72.6387 9.16458 72.6643 9.23857 72.6886 9.30535L76.372 19.5377H78.711L73.6183 5.66113H71.6047Z" fill="#045462"/>
  <path d="M43.4819 11.5343L43.4815 11.5342C42.0538 10.9305 40.9263 10.4537 40.9263 9.34981C40.9263 8.48396 41.7711 7.58832 43.185 7.58832C44.6498 7.58832 45.6877 8.55392 45.697 8.56263L46.1236 8.97288L47.2281 7.08866L46.981 6.83397C46.9257 6.77702 45.5991 5.44043 43.185 5.44043C40.6623 5.44043 38.6864 7.17389 38.6864 9.38682C38.6864 11.8048 40.7739 12.7055 42.4515 13.4292C43.9586 14.0795 45.1491 14.593 45.1491 15.8311C45.1491 16.8792 44.2808 17.6111 43.0376 17.6111C41.2408 17.6111 39.9987 16.3496 39.9874 16.338L39.6129 15.945L38.2911 17.6541L38.5447 17.9434C38.6098 18.0175 40.175 19.7588 43.0009 19.7588C45.5846 19.7588 47.3892 18.1285 47.3892 15.7942C47.3892 13.1866 45.2227 12.2705 43.4819 11.5343Z" fill="#045462"/>
  <path d="M121.874 5.66113V7.7353H126.532V19.5377H128.735V7.7353H133.375V5.66113H121.874Z" fill="#045462"/>
  <path d="M88.7669 7.55261C90.9381 7.55261 92.3296 8.84727 92.3433 8.86016L92.7278 9.23026L93.9343 7.54754L93.6755 7.2652C93.5001 7.07846 91.8703 5.44043 88.7296 5.44043C84.932 5.44043 82.0455 8.28642 81.8569 12.1203H81.8386V12.4623C81.8386 12.4716 81.8399 12.4804 81.8399 12.4897C81.8399 12.499 81.8386 12.5079 81.8386 12.5171V12.8592H81.8569C82.0455 16.693 84.932 19.539 88.7296 19.539C91.8675 19.539 93.4997 17.9012 93.6777 17.712L93.9343 17.4319L92.7275 15.7489L92.3435 16.1192C92.3296 16.1322 90.9381 17.4268 88.7669 17.4268C86.0973 17.4268 84.0837 15.3051 84.0784 12.4897C84.0837 9.67437 86.0973 7.55261 88.7669 7.55261Z" fill="#045462"/>
  <path d="M7.67387 0L4.99689 12.5446H11.6895L13.1299 5.79617H28.6337L29.8703 0H7.67387Z" fill="#045462"/>
  <path d="M18.2405 9.41699L16.7919 16.2043H1.23623L0 22.0004H22.2476L24.9331 9.41699H18.2405Z" fill="#045462"/>
</svg>